<?xml version="1.0" standalone="no"?><!DOCTYPE svg PUBLIC "-//W3C//DTD SVG 1.1//EN" "http://www.w3.org/Graphics/SVG/1.1/DTD/svg11.dtd"><svg width="100%" height="100%" viewBox="0 0 1280 720" version="1.1" xmlns="http://www.w3.org/2000/svg" xmlns:xlink="http://www.w3.org/1999/xlink" xml:space="preserve" style="fill-rule:evenodd;clip-rule:evenodd;stroke-linejoin:round;stroke-miterlimit:1.41421;"><g id="Layer1"><path d="M386.693,335.507c-6.419,19.922 -13.447,37.243 -21.084,51.963c-7.636,14.72 -15.605,26.95 -23.906,36.689c-8.301,9.74 -16.878,16.989 -25.732,21.748c-8.854,4.759 -17.653,7.139 -26.397,7.139c-9.518,0 -17.487,-1.522 -23.906,-4.565c-6.419,-3.044 -11.593,-7.194 -15.522,-12.452c-3.93,-5.257 -6.752,-11.455 -8.467,-18.593c-1.716,-7.139 -2.574,-14.859 -2.574,-23.16c0,-9.739 1.052,-20.143 3.155,-31.21c2.103,-11.068 4.455,-22.247 7.055,-33.536c2.601,-11.289 4.953,-22.522 7.056,-33.701c2.103,-11.178 3.154,-21.803 3.154,-31.875c0,-15.495 -3.984,-27.475 -11.953,-35.942c-7.968,-8.467 -19.534,-12.7 -34.697,-12.7c-9.518,0 -18.566,1.521 -27.144,4.565c-8.577,3.044 -16.103,7.305 -22.578,12.783c-6.474,5.479 -11.621,11.981 -15.439,19.507c-3.818,7.526 -5.728,15.772 -5.728,24.736c0,6.198 0.72,11.539 2.159,16.021c1.438,4.482 3.237,8.273 5.395,11.372c2.158,3.099 4.482,5.589 6.973,7.471c2.49,1.881 4.869,3.32 7.138,4.316c2.269,0.996 4.178,1.66 5.728,1.992c1.549,0.332 2.435,0.498 2.656,0.498c1.66,0.222 2.988,0.941 3.985,2.159c0.996,1.217 1.494,2.6 1.494,4.15c0,1.771 -0.637,3.237 -1.909,4.399c-1.273,1.162 -2.74,1.744 -4.4,1.744c-0.221,0 -0.775,-0.056 -1.66,-0.166c-0.885,-0.111 -1.439,-0.222 -1.66,-0.333c-4.317,-1.106 -8.771,-2.849 -13.364,-5.229c-4.594,-2.38 -8.744,-5.7 -12.452,-9.961c-3.707,-4.261 -6.751,-9.518 -9.131,-15.771c-2.379,-6.254 -3.569,-13.807 -3.569,-22.662c0,-10.735 2.269,-20.613 6.807,-29.633c4.538,-9.021 10.625,-16.823 18.262,-23.409c7.636,-6.585 16.49,-11.704 26.562,-15.356c10.072,-3.652 20.641,-5.479 31.709,-5.479c9.297,0 17.598,1.384 24.902,4.151c7.305,2.767 13.531,6.779 18.677,12.036c5.147,5.257 9.076,11.649 11.787,19.175c2.712,7.526 4.068,16.048 4.068,25.566c0,10.293 -1.08,21.029 -3.238,32.207c-2.158,11.179 -4.51,22.385 -7.055,33.618c-2.546,11.234 -4.898,22.302 -7.056,33.204c-2.158,10.901 -3.237,21.277 -3.237,31.127c0,6.973 0.636,13.337 1.909,19.092c1.273,5.755 3.403,10.681 6.391,14.776c2.989,4.095 6.89,7.277 11.705,9.546c4.814,2.268 10.763,3.403 17.846,3.403c4.759,0 9.823,-0.996 15.191,-2.988c5.367,-1.993 10.957,-5.534 16.767,-10.625c5.811,-5.092 11.843,-12.009 18.096,-20.752c6.253,-8.744 12.645,-19.922 19.175,-33.536c4.759,-9.96 9.158,-20.696 13.198,-32.207c4.04,-11.51 7.692,-22.993 10.957,-34.448c3.265,-11.455 6.143,-22.523 8.633,-33.203c2.49,-10.68 4.565,-20.143 6.225,-28.389c1.661,-8.245 2.933,-14.858 3.819,-19.838c0.885,-4.981 1.328,-7.582 1.328,-7.803c0.332,-1.55 1.051,-2.795 2.158,-3.736c1.107,-0.94 2.435,-1.411 3.984,-1.411c1.882,0 3.404,0.609 4.566,1.827c1.162,1.217 1.743,2.6 1.743,4.15c0,0.443 -0.304,2.822 -0.913,7.139c-0.609,4.316 -1.411,9.905 -2.407,16.767c-0.996,6.862 -2.131,14.803 -3.404,23.823c-1.272,9.021 -2.545,18.456 -3.818,28.306c-1.273,9.85 -2.546,19.867 -3.818,30.049c-1.273,10.182 -2.408,19.949 -3.404,29.302c-0.996,9.352 -1.798,17.985 -2.407,25.898c-0.609,7.913 -0.913,14.526 -0.913,19.839c0,14.277 2.463,24.875 7.388,31.792c4.925,6.917 11.372,10.376 19.341,10.376c5.533,0 10.597,-1.826 15.19,-5.479c4.593,-3.652 8.688,-8.079 12.285,-13.281c3.597,-5.202 6.613,-10.57 9.048,-16.103c2.435,-5.534 4.316,-10.238 5.645,-14.112c0.442,-1.328 1.217,-2.379 2.324,-3.154c1.107,-0.775 2.324,-1.162 3.652,-1.162c1.882,0 3.403,0.664 4.566,1.992c1.162,1.328 1.743,2.767 1.743,4.316c0,0.443 -0.111,1.107 -0.332,1.993c-0.443,1.217 -1.301,3.458 -2.574,6.723c-1.272,3.265 -2.96,7.028 -5.063,11.289c-2.103,4.261 -4.648,8.689 -7.637,13.282c-2.988,4.593 -6.419,8.798 -10.293,12.617c-3.873,3.818 -8.217,6.972 -13.032,9.463c-4.814,2.49 -10.099,3.735 -15.854,3.735c-6.309,0 -11.898,-1.245 -16.768,-3.735c-4.87,-2.491 -8.965,-6.06 -12.285,-10.708c-3.32,-4.649 -5.838,-10.321 -7.554,-17.017c-1.715,-6.696 -2.573,-14.305 -2.573,-22.827c0,-7.083 0.498,-16.214 1.494,-27.393c0.996,-11.178 2.269,-23.242 3.818,-36.191Z" style="fill:#7fb7be;fill-rule:nonzero;"/><path d="M500.248,428.144c1.771,-3.653 3.818,-7.665 6.143,-12.036c2.324,-4.372 4.814,-8.799 7.47,-13.282c2.657,-4.482 5.451,-8.937 8.384,-13.364c2.933,-4.427 6.004,-8.633 9.214,-12.617c3.21,-3.874 6.447,-6.668 9.712,-8.384c3.265,-1.715 6.336,-2.573 9.214,-2.573c5.755,0 10.016,2.103 12.783,6.308c2.767,4.206 4.15,9.408 4.15,15.606c0,1.439 -0.083,3.182 -0.249,5.229c-0.166,2.048 -0.332,4.234 -0.498,6.558c-0.166,2.324 -0.332,4.676 -0.498,7.056c-0.166,2.379 -0.249,4.62 -0.249,6.723c0,2.657 0.139,5.202 0.415,7.637c0.277,2.435 0.803,4.565 1.577,6.392c0.775,1.826 1.882,3.265 3.321,4.316c1.439,1.051 3.32,1.577 5.644,1.577c4.206,0 8.301,-1.632 12.285,-4.897c3.985,-3.265 7.665,-7.139 11.04,-11.621c3.376,-4.483 6.309,-9.048 8.799,-13.697c2.491,-4.648 4.344,-8.411 5.562,-11.289c0.553,-1.217 1.356,-2.158 2.407,-2.822c1.051,-0.664 2.186,-0.996 3.403,-0.996c1.882,0 3.404,0.692 4.566,2.075c1.162,1.384 1.743,2.85 1.743,4.4c0,0.774 -0.166,1.549 -0.498,2.324c-0.443,0.885 -1.328,2.711 -2.656,5.478c-1.328,2.767 -3.072,5.949 -5.23,9.546c-2.158,3.597 -4.676,7.416 -7.554,11.455c-2.877,4.04 -6.059,7.72 -9.545,11.04c-3.487,3.321 -7.25,6.087 -11.29,8.301c-4.039,2.214 -8.273,3.32 -12.7,3.32c-4.98,0 -9.02,-0.968 -12.119,-2.905c-3.099,-1.937 -5.534,-4.482 -7.305,-7.637c-1.77,-3.154 -2.96,-6.64 -3.569,-10.459c-0.609,-3.818 -0.913,-7.664 -0.913,-11.538c0,-1.66 0.083,-3.541 0.249,-5.644c0.166,-2.103 0.387,-4.317 0.664,-6.641c0.277,-2.324 0.498,-4.648 0.664,-6.973c0.166,-2.324 0.249,-4.537 0.249,-6.64c0,-3.542 -0.553,-5.949 -1.66,-7.222c-1.107,-1.273 -2.103,-1.909 -2.988,-1.909c-1.771,0 -3.791,1.024 -6.06,3.071c-2.269,2.048 -4.648,4.732 -7.138,8.052c-2.491,3.32 -5.036,7.056 -7.637,11.206c-2.601,4.15 -5.036,8.273 -7.305,12.368c-2.269,4.095 -4.372,7.997 -6.308,11.704c-1.937,3.708 -3.459,6.779 -4.566,9.214c-2.213,4.649 -4.427,7.775 -6.641,9.38c-2.213,1.605 -4.482,2.407 -6.806,2.407c-3.21,0 -5.783,-0.968 -7.72,-2.905c-1.937,-1.937 -2.905,-4.676 -2.905,-8.218c0,-0.774 0.111,-2.296 0.332,-4.565c0.221,-2.269 0.498,-4.981 0.83,-8.135c0.332,-3.154 0.664,-6.558 0.996,-10.21c0.332,-3.652 0.664,-7.277 0.996,-10.874c0.332,-3.597 0.609,-6.945 0.83,-10.044c0.222,-3.099 0.332,-5.7 0.332,-7.803c0,-2.766 -0.11,-5.423 -0.332,-7.968c-0.221,-2.546 -0.664,-4.095 -1.328,-4.649c-0.996,0.332 -2.767,2.407 -5.312,6.226c-2.546,3.818 -5.811,10.542 -9.795,20.171c-0.554,1.217 -1.384,2.158 -2.491,2.822c-1.106,0.664 -2.268,0.996 -3.486,0.996c-1.881,0 -3.376,-0.636 -4.482,-1.909c-1.107,-1.273 -1.66,-2.739 -1.66,-4.4c0,-0.774 0.166,-1.604 0.498,-2.49c4.98,-11.842 9.656,-20.558 14.028,-26.147c4.372,-5.589 8.716,-8.384 13.032,-8.384c2.546,0 4.704,0.636 6.475,1.909c1.771,1.273 3.182,2.961 4.233,5.064c1.052,2.103 1.826,4.427 2.324,6.972c0.498,2.546 0.747,5.147 0.747,7.803c0,1.992 -0.138,5.091 -0.415,9.297c-0.276,4.206 -0.636,8.716 -1.079,13.53c-0.442,4.815 -0.857,9.601 -1.245,14.361c-0.387,4.759 -0.747,8.743 -1.079,11.953Z" style="fill:#7fb7be;fill-rule:nonzero;"/><path d="M641.693,312.763c0,4.206 -1.466,7.775 -4.399,10.708c-2.933,2.933 -6.502,4.399 -10.708,4.399c-4.206,0 -7.775,-1.466 -10.708,-4.399c-2.933,-2.933 -4.399,-6.502 -4.399,-10.708c0,-2.103 0.387,-4.068 1.162,-5.894c0.774,-1.826 1.853,-3.431 3.237,-4.814c1.383,-1.384 2.988,-2.463 4.814,-3.237c1.827,-0.775 3.791,-1.163 5.894,-1.163c2.103,0 4.067,0.388 5.894,1.163c1.826,0.774 3.43,1.853 4.814,3.237c1.383,1.383 2.463,2.988 3.237,4.814c0.775,1.826 1.162,3.791 1.162,5.894ZM614.799,410.048c0,-15.938 0.996,-31.82 2.988,-47.647c0.221,-1.549 0.913,-2.905 2.075,-4.067c1.162,-1.162 2.684,-1.743 4.566,-1.743c1.66,0 3.043,0.636 4.15,1.909c1.107,1.273 1.66,2.739 1.66,4.4c0,0.664 -0.138,2.656 -0.415,5.976c-0.276,3.32 -0.608,7.277 -0.996,11.87c-0.387,4.593 -0.719,9.463 -0.996,14.61c-0.277,5.146 -0.415,9.878 -0.415,14.194c0,5.866 0.581,10.597 1.743,14.194c1.162,3.597 2.656,6.392 4.483,8.384c1.826,1.992 3.763,3.32 5.81,3.984c2.048,0.664 4.012,0.997 5.894,0.997c3.099,0 6.308,-1.107 9.629,-3.321c3.32,-2.213 6.723,-5.312 10.21,-9.297c3.486,-3.984 7,-8.771 10.542,-14.36c3.541,-5.589 7.028,-11.815 10.459,-18.677c0.553,-1.107 1.328,-1.964 2.324,-2.573c0.996,-0.609 2.103,-0.913 3.32,-0.913c1.771,0 3.237,0.664 4.4,1.992c1.162,1.328 1.743,2.767 1.743,4.316c0,1.107 -0.222,2.048 -0.664,2.823c-1.329,2.545 -2.989,5.644 -4.981,9.297c-1.992,3.652 -4.261,7.415 -6.807,11.289c-2.545,3.873 -5.34,7.719 -8.383,11.538c-3.044,3.818 -6.281,7.249 -9.712,10.293c-3.431,3.043 -7.028,5.506 -10.791,7.387c-3.763,1.882 -7.582,2.823 -11.455,2.823c-4.981,0 -9.353,-1.052 -13.116,-3.155c-3.763,-2.102 -6.945,-4.925 -9.545,-8.466c-2.601,-3.542 -4.538,-7.72 -5.811,-12.535c-1.273,-4.814 -1.909,-9.988 -1.909,-15.522ZM632.396,312.763c0,-1.55 -0.581,-2.905 -1.743,-4.068c-1.162,-1.162 -2.518,-1.743 -4.067,-1.743c-1.55,0 -2.878,0.581 -3.984,1.743c-1.107,1.163 -1.661,2.518 -1.661,4.068c0,1.549 0.554,2.877 1.661,3.984c1.106,1.107 2.434,1.66 3.984,1.66c1.549,0 2.905,-0.553 4.067,-1.66c1.162,-1.107 1.743,-2.435 1.743,-3.984Z" style="fill:#7fb7be;fill-rule:nonzero;"/><path d="M704.447,381.659c-0.664,1.771 -1.466,3.763 -2.407,5.977c-0.941,2.213 -2.02,4.538 -3.237,6.973c-0.996,1.881 -2.02,3.348 -3.072,4.399c-1.051,1.051 -2.407,1.577 -4.067,1.577c-1.881,0 -3.376,-0.581 -4.482,-1.743c-1.107,-1.162 -1.661,-2.518 -1.661,-4.067c0,-0.554 0.056,-1.024 0.167,-1.412c0.11,-0.387 0.387,-1.023 0.83,-1.909c2.877,-5.534 5.008,-10.376 6.391,-14.526c1.384,-4.151 2.518,-8.495 3.404,-13.032c-0.775,-2.546 -1.329,-4.704 -1.661,-6.475c-0.332,-1.771 -0.498,-3.597 -0.498,-5.478c0,-3.653 0.775,-6.613 2.325,-8.882c1.549,-2.269 3.707,-3.404 6.474,-3.404c2.546,0 4.566,1.107 6.06,3.321c1.494,2.213 2.241,4.925 2.241,8.134c0,1.771 -0.166,3.542 -0.498,5.313c-0.332,1.771 -0.775,3.984 -1.328,6.641c2.545,6.308 5.091,11.897 7.636,16.767c2.546,4.87 4.815,9.325 6.807,13.364c1.992,4.04 3.625,7.831 4.898,11.372c1.272,3.542 1.909,7.084 1.909,10.625c0,4.649 -0.941,9.076 -2.823,13.282c-1.881,4.205 -4.98,7.747 -9.296,10.625c0.553,0.11 1.106,0.166 1.66,0.166c0.553,0 1.107,0 1.66,0c6.309,0 12.119,-1.439 17.432,-4.317c5.312,-2.877 10.099,-6.613 14.36,-11.206c4.261,-4.593 8.052,-9.684 11.372,-15.273c3.32,-5.589 6.198,-11.151 8.633,-16.685c1.107,-2.545 2.656,-3.818 4.648,-3.818c1.882,0 3.348,0.664 4.4,1.992c1.051,1.328 1.577,2.767 1.577,4.316c0,0.886 -0.166,1.716 -0.498,2.491c-1.218,2.988 -2.795,6.391 -4.732,10.21c-1.937,3.818 -4.261,7.747 -6.972,11.787c-2.712,4.04 -5.839,7.996 -9.38,11.87c-3.542,3.874 -7.499,7.332 -11.87,10.376c-4.372,3.044 -9.159,5.478 -14.361,7.305c-5.202,1.826 -10.901,2.739 -17.099,2.739c-7.416,0 -14.305,-1.301 -20.669,-3.902c-6.364,-2.6 -11.538,-6.889 -15.523,-12.866c-0.664,-0.996 -0.996,-2.047 -0.996,-3.154c0,-1.66 0.637,-3.127 1.909,-4.399c1.273,-1.273 2.74,-1.91 4.4,-1.91c1.771,0 3.265,0.609 4.482,1.827c0.111,0.221 0.498,0.581 1.162,1.079c0.664,0.498 1.467,1.051 2.408,1.66c0.94,0.609 2.047,1.134 3.32,1.577c1.273,0.443 2.573,0.664 3.901,0.664c2.656,0 4.898,-0.553 6.724,-1.66c1.826,-1.107 3.292,-2.463 4.399,-4.068c1.107,-1.604 1.909,-3.32 2.407,-5.146c0.499,-1.826 0.748,-3.403 0.748,-4.731c0,-2.767 -0.443,-5.534 -1.329,-8.301c-0.885,-2.767 -2.019,-5.534 -3.403,-8.301c-1.383,-2.767 -2.877,-5.617 -4.482,-8.55c-1.605,-2.933 -3.072,-6.004 -4.4,-9.214Z" style="fill:#7fb7be;fill-rule:nonzero;"/><path d="M906.82,276.903c0,1.771 -0.608,3.182 -1.826,4.234c-1.217,1.051 -2.711,1.577 -4.482,1.577l-84.17,0l0,1.826c0,6.751 -0.498,13.945 -1.494,21.582c-0.996,7.637 -2.352,15.246 -4.068,22.827c-1.715,7.582 -3.652,14.969 -5.81,22.163c-2.158,7.194 -4.372,13.835 -6.641,19.922c-2.269,6.088 -4.51,11.372 -6.724,15.855c-2.213,4.482 -4.205,7.83 -5.976,10.044c1.439,5.091 3.154,9.822 5.146,14.194c1.993,4.372 4.234,8.19 6.724,11.455c2.49,3.265 5.174,5.838 8.052,7.72c2.877,1.881 5.976,2.822 9.297,2.822c3.873,0 7.719,-1.632 11.538,-4.897c3.818,-3.265 7.36,-7.139 10.625,-11.621c3.265,-4.483 6.142,-9.021 8.633,-13.614c2.49,-4.593 4.288,-8.273 5.395,-11.04c1.107,-2.656 3.044,-3.984 5.811,-3.984c1.881,0 3.403,0.664 4.565,1.992c1.162,1.328 1.743,2.767 1.743,4.316c0,0.775 -0.166,1.55 -0.498,2.325c-0.332,0.774 -1.134,2.545 -2.407,5.312c-1.273,2.767 -2.933,5.977 -4.981,9.629c-2.047,3.652 -4.427,7.498 -7.138,11.538c-2.712,4.04 -5.755,7.72 -9.131,11.04c-3.376,3.321 -7,6.087 -10.874,8.301c-3.874,2.214 -7.969,3.32 -12.285,3.32c-7.637,0 -14.499,-2.49 -20.586,-7.47c-6.087,-4.981 -11.262,-11.953 -15.523,-20.918c-4.261,-8.965 -7.498,-19.59 -9.712,-31.875c-2.213,-12.285 -3.32,-25.733 -3.32,-40.342c0,-3.652 0.055,-7.941 0.166,-12.866c0.111,-4.925 0.332,-10.127 0.664,-15.606c0.332,-5.478 0.83,-11.123 1.494,-16.933c0.664,-5.811 1.55,-11.483 2.657,-17.017l-59.6,0c-1.771,0 -3.265,-0.526 -4.482,-1.577c-1.218,-1.052 -1.827,-2.463 -1.827,-4.234c0,-1.77 0.609,-3.182 1.827,-4.233c1.217,-1.051 2.711,-1.577 4.482,-1.577l62.422,0c1.107,-3.984 2.407,-7.637 3.901,-10.957c1.494,-3.32 3.21,-6.198 5.147,-8.633c1.937,-2.435 4.095,-4.344 6.474,-5.727c2.38,-1.384 5.008,-2.076 7.886,-2.076c2.767,0 5.174,0.692 7.222,2.076c2.047,1.383 3.79,3.292 5.229,5.727c1.439,2.435 2.573,5.313 3.404,8.633c0.83,3.32 1.466,6.973 1.909,10.957l84.834,0c1.771,0 3.265,0.526 4.482,1.577c1.218,1.051 1.826,2.463 1.826,4.233ZM781.811,380.331c3.32,-7.305 6.336,-15.19 9.047,-23.657c2.712,-8.467 5.036,-17.017 6.973,-25.649c1.937,-8.633 3.431,-17.1 4.482,-25.401c1.052,-8.301 1.578,-15.937 1.578,-22.91l-19.59,0c-1.55,6.862 -2.795,15.356 -3.736,25.483c-0.94,10.127 -1.411,22.44 -1.411,36.939c0,8.079 0.222,14.858 0.664,20.337c0.443,5.478 1.107,10.431 1.993,14.858ZM797.25,256.151c-0.996,0 -2.435,1.08 -4.316,3.238c-1.882,2.158 -3.763,6.059 -5.645,11.704l15.938,0c-0.554,-4.649 -1.356,-8.301 -2.408,-10.957c-1.051,-2.656 -2.241,-3.985 -3.569,-3.985Z" style="fill:#7fb7be;fill-rule:nonzero;"/><path d="M913.461,445.409c3.874,-3.873 7.803,-7.83 11.787,-11.87c3.984,-4.04 7.858,-8.273 11.621,-12.7c3.763,-4.427 7.277,-9.048 10.542,-13.862c3.265,-4.815 6.17,-9.934 8.716,-15.357c0.553,-1.217 1.328,-2.13 2.324,-2.739c0.996,-0.609 2.103,-0.913 3.32,-0.913c1.882,0 3.404,0.664 4.566,1.992c1.162,1.328 1.743,2.822 1.743,4.483c0,0.885 -0.166,1.715 -0.498,2.49c-3.431,7.194 -7.36,13.779 -11.787,19.756c-4.427,5.976 -9.076,11.648 -13.945,17.016c-4.87,5.368 -9.795,10.57 -14.776,15.606c-4.98,5.035 -9.739,10.099 -14.277,15.19c-0.443,7.637 -0.443,15.301 0,22.993c0.443,7.692 0.664,15.855 0.664,24.488c0,7.083 -0.221,14.166 -0.664,21.25c-0.443,7.083 -1.162,13.862 -2.158,20.336c-0.996,6.475 -2.352,12.535 -4.068,18.179c-1.715,5.645 -3.901,10.542 -6.557,14.693c-2.657,4.15 -5.756,7.415 -9.297,9.795c-3.542,2.379 -7.692,3.569 -12.451,3.569c-7.858,0 -13.89,-2.712 -18.096,-8.135c-4.206,-5.423 -6.309,-13.004 -6.309,-22.744c0,-5.313 0.581,-11.012 1.744,-17.1c1.162,-6.087 2.794,-12.368 4.897,-18.842c2.103,-6.475 4.621,-13.033 7.554,-19.673c2.933,-6.641 6.115,-13.116 9.546,-19.424c3.431,-6.309 7.083,-12.313 10.957,-18.013c3.873,-5.7 7.802,-10.874 11.787,-15.522c0.221,-5.313 0.47,-10.819 0.747,-16.519c0.276,-5.7 0.581,-10.985 0.913,-15.854c-2.878,5.091 -6.447,9.186 -10.708,12.285c-4.261,3.099 -8.937,4.648 -14.028,4.648c-8.412,0 -14.997,-2.822 -19.756,-8.467c-4.759,-5.644 -7.139,-13.391 -7.139,-23.242c0,-7.194 0.692,-13.751 2.075,-19.673c1.384,-5.921 2.878,-11.012 4.483,-15.273c1.604,-4.261 3.071,-7.526 4.399,-9.795c1.328,-2.269 1.992,-3.348 1.992,-3.237c1.218,-1.882 2.933,-2.823 5.147,-2.823c1.881,0 3.403,0.637 4.565,1.91c1.162,1.272 1.743,2.739 1.743,4.399c0,1.218 -0.332,2.324 -0.996,3.32c0.111,-0.11 -0.415,0.803 -1.577,2.74c-1.162,1.937 -2.435,4.731 -3.818,8.383c-1.384,3.653 -2.657,8.025 -3.819,13.116c-1.162,5.091 -1.743,10.68 -1.743,16.767c0,6.087 1.107,10.847 3.32,14.278c2.214,3.431 5.811,5.146 10.792,5.146c6.308,0 12.008,-4.676 17.099,-14.028c5.091,-9.352 9.408,-22.938 12.949,-40.757c0.222,-1.439 0.886,-2.629 1.993,-3.569c1.106,-0.941 2.434,-1.412 3.984,-1.412c1.771,0 3.265,0.609 4.482,1.827c1.218,1.217 1.826,2.711 1.826,4.482c0,0.332 -0.221,2.297 -0.664,5.894c-0.442,3.597 -0.968,8.383 -1.577,14.36c-0.608,5.977 -1.245,12.922 -1.909,20.835c-0.664,7.913 -1.217,16.352 -1.66,25.317ZM900.18,480.605c-4.981,7.194 -9.546,14.775 -13.697,22.744c-4.15,7.969 -7.719,15.882 -10.708,23.74c-2.988,7.858 -5.312,15.384 -6.972,22.578c-1.66,7.194 -2.49,13.613 -2.49,19.258c0,5.755 0.94,10.265 2.822,13.53c1.881,3.265 4.87,4.898 8.965,4.898c3.652,0 6.889,-1.799 9.712,-5.396c2.822,-3.597 5.201,-8.716 7.138,-15.356c1.937,-6.641 3.404,-14.693 4.4,-24.156c0.996,-9.462 1.494,-20.06 1.494,-31.792c0,-4.759 -0.083,-9.573 -0.249,-14.443c-0.166,-4.87 -0.305,-10.072 -0.415,-15.605Z" style="fill:#7fb7be;fill-rule:nonzero;"/><path d="M1050.59,397.099c-1.218,2.545 -2.739,5.561 -4.566,9.048c-1.826,3.486 -3.901,7.111 -6.225,10.874c-2.324,3.763 -4.925,7.498 -7.803,11.206c-2.878,3.707 -6.004,7.028 -9.38,9.961c-3.375,2.933 -6.972,5.312 -10.791,7.138c-3.818,1.826 -7.886,2.74 -12.202,2.74c-6.641,0 -12.34,-2.048 -17.1,-6.143c-4.759,-4.095 -8.798,-9.463 -12.119,-16.104c-3.32,-6.64 -6.004,-14.194 -8.051,-22.661c-2.048,-8.466 -3.625,-17.099 -4.732,-25.898c-1.107,-8.799 -1.854,-17.349 -2.241,-25.65c-0.387,-8.3 -0.581,-15.66 -0.581,-22.08c0,-9.296 0.304,-18.925 0.913,-28.886c0.609,-9.961 1.577,-19.701 2.905,-29.219c1.328,-9.518 3.016,-18.538 5.064,-27.061c2.047,-8.522 4.482,-15.992 7.304,-22.412c2.823,-6.419 6.06,-11.51 9.712,-15.273c3.653,-3.763 7.803,-5.645 12.451,-5.645c3.653,0 6.945,0.858 9.878,2.574c2.933,1.715 5.396,4.51 7.388,8.383c1.992,3.874 3.542,8.91 4.649,15.108c1.106,6.198 1.66,13.779 1.66,22.744c0,11.068 -1.162,22.495 -3.487,34.282c-2.324,11.787 -5.478,23.657 -9.463,35.61c-3.984,11.954 -8.688,23.879 -14.111,35.777c-5.423,11.898 -11.234,23.491 -17.432,34.78c2.767,14.056 6.475,25.096 11.124,33.12c4.648,8.024 10.237,12.036 16.767,12.036c4.427,0 8.688,-1.743 12.783,-5.229c4.095,-3.486 7.858,-7.609 11.289,-12.368c3.431,-4.759 6.447,-9.602 9.048,-14.527c2.601,-4.925 4.621,-8.881 6.06,-11.87c0.553,-1.107 1.328,-1.964 2.324,-2.573c0.996,-0.609 2.103,-0.913 3.32,-0.913c1.882,0 3.404,0.664 4.566,1.992c1.162,1.328 1.743,2.822 1.743,4.483c0,0.664 -0.221,1.549 -0.664,2.656ZM967.416,330.36c0,7.084 0.166,13.89 0.498,20.42c0.332,6.53 0.775,12.784 1.328,18.76c4.649,-8.965 9.076,-18.511 13.281,-28.638c4.206,-10.126 7.914,-20.364 11.123,-30.712c3.21,-10.349 5.783,-20.642 7.72,-30.879c1.937,-10.238 2.905,-20.005 2.905,-29.302c0,-13.06 -1.051,-22.412 -3.154,-28.057c-2.103,-5.644 -4.925,-8.467 -8.467,-8.467c-2.324,0 -4.565,1.605 -6.723,4.815c-2.158,3.21 -4.178,7.581 -6.06,13.115c-1.881,5.534 -3.597,12.064 -5.146,19.59c-1.55,7.526 -2.85,15.605 -3.902,24.238c-1.051,8.633 -1.881,17.653 -2.49,27.061c-0.609,9.407 -0.913,18.76 -0.913,28.056Z" style="fill:#7fb7be;fill-rule:nonzero;"/><path d="M1059.22,424.823c2.324,3.21 5.312,5.783 8.965,7.72c3.652,1.937 8.134,2.905 13.447,2.905c5.423,0 10.348,-1.3 14.775,-3.901c4.427,-2.601 8.467,-6.004 12.119,-10.21c3.653,-4.206 6.918,-8.909 9.795,-14.111c2.878,-5.202 5.479,-10.404 7.803,-15.606c0.553,-1.217 1.328,-2.13 2.324,-2.739c0.996,-0.609 2.103,-0.913 3.32,-0.913c1.882,0 3.404,0.664 4.566,1.992c1.162,1.328 1.743,2.767 1.743,4.316c0,0.554 -0.055,1.024 -0.166,1.412c-0.111,0.387 -0.277,0.802 -0.498,1.245c-7.637,16.823 -15.965,29.495 -24.985,38.017c-9.021,8.522 -19.23,12.894 -30.63,13.116c-7.305,0 -13.613,-1.412 -18.926,-4.234c-5.312,-2.822 -9.684,-6.474 -13.115,-10.957c-3.431,-4.482 -5.977,-9.546 -7.637,-15.19c-1.66,-5.645 -2.49,-11.289 -2.49,-16.934c0,-5.644 0.692,-10.846 2.075,-15.605c1.383,-4.759 3.376,-8.91 5.977,-12.452c2.6,-3.541 5.699,-6.308 9.296,-8.3c3.597,-1.993 7.554,-2.989 11.871,-2.989c2.545,0 5.063,0.526 7.553,1.578c2.491,1.051 4.732,2.545 6.724,4.482c1.992,1.937 3.597,4.289 4.814,7.056c1.218,2.767 1.827,5.921 1.827,9.463c0,4.537 -0.775,8.798 -2.325,12.783c-1.549,3.984 -3.68,7.692 -6.391,11.123c-2.712,3.431 -5.949,6.585 -9.712,9.463c-3.763,2.877 -7.803,5.368 -12.119,7.47ZM1054.24,414.032c3.431,-1.438 6.558,-3.265 9.38,-5.478c2.822,-2.214 5.23,-4.649 7.222,-7.305c1.992,-2.656 3.541,-5.451 4.648,-8.384c1.107,-2.933 1.66,-5.893 1.66,-8.881c0,-3.321 -0.83,-5.839 -2.49,-7.554c-1.66,-1.716 -3.597,-2.573 -5.81,-2.573c-2.989,0 -5.534,0.83 -7.637,2.49c-2.103,1.66 -3.819,3.818 -5.147,6.474c-1.328,2.657 -2.296,5.617 -2.905,8.882c-0.609,3.265 -0.913,6.503 -0.913,9.712c0,1.992 0.194,4.095 0.581,6.309c0.387,2.213 0.858,4.316 1.411,6.308Z" style="fill:#7fb7be;fill-rule:nonzero;"/></g></svg>